# Blender v2.67 (sub 0) OBJ File: 'thin_pointer_abstract.blend'
# www.blender.org
v 0.000000 0.001884 0.015097
v 0.000000 0.029884 0.015097
v -0.000195 0.029884 0.015078
v -0.000195 0.001884 0.015078
v -0.000383 0.029884 0.015021
v -0.000383 0.001884 0.015021
v -0.000556 0.029884 0.014929
v -0.000556 0.001884 0.014929
v -0.000707 0.029884 0.014804
v -0.000707 0.001884 0.014804
v -0.000831 0.029884 0.014653
v -0.000831 0.001884 0.014653
v -0.000924 0.029884 0.014480
v -0.000924 0.001884 0.014480
v -0.000981 0.029884 0.014292
v -0.000981 0.001884 0.014292
v -0.001000 0.029884 0.014097
v -0.001000 0.001884 0.014097
v -0.000981 0.029884 0.013902
v -0.000981 0.001884 0.013902
v -0.000924 0.029884 0.013715
v -0.000924 0.001884 0.013715
v -0.000831 0.029884 0.013542
v -0.000831 0.001884 0.013542
v -0.000707 0.029884 0.013390
v -0.000707 0.001884 0.013390
v -0.000556 0.029884 0.013266
v -0.000556 0.001884 0.013266
v -0.000383 0.029884 0.013173
v -0.000383 0.001884 0.013173
v -0.000195 0.029884 0.013117
v -0.000195 0.001884 0.013117
v 0.000000 0.029884 0.013097
v 0.000000 0.001884 0.013097
v 0.000195 0.029884 0.013117
v 0.000195 0.001884 0.013117
v 0.000383 0.029884 0.013173
v 0.000383 0.001884 0.013173
v 0.000556 0.029884 0.013266
v 0.000556 0.001884 0.013266
v 0.000707 0.029884 0.013390
v 0.000707 0.001884 0.013390
v 0.000831 0.029884 0.013542
v 0.000831 0.001884 0.013542
v 0.000924 0.029884 0.013715
v 0.000924 0.001884 0.013715
v 0.000981 0.029884 0.013902
v 0.000981 0.001884 0.013902
v 0.001000 0.029884 0.014097
v 0.001000 0.001884 0.014097
v 0.000981 0.029884 0.014292
v 0.000981 0.001884 0.014292
v 0.000924 0.029884 0.014480
v 0.000924 0.001884 0.014480
v 0.000831 0.029884 0.014653
v 0.000831 0.001884 0.014653
v 0.000707 0.029884 0.014804
v 0.000707 0.001884 0.014804
v 0.000556 0.029884 0.014929
v 0.000556 0.001884 0.014929
v 0.000383 0.029884 0.015021
v 0.000383 0.001884 0.015021
v 0.000195 0.001884 0.015078
v 0.000195 0.029884 0.015078
v 0.050364 -0.000000 0.014668
v 0.002364 -0.000000 0.014668
v 0.002364 -0.000195 0.014649
v 0.050364 -0.000195 0.014649
v 0.002364 -0.000383 0.014592
v 0.050364 -0.000383 0.014592
v 0.002364 -0.000556 0.014500
v 0.050364 -0.000556 0.014500
v 0.002364 -0.000707 0.014375
v 0.050364 -0.000707 0.014375
v 0.002364 -0.000831 0.014224
v 0.050364 -0.000831 0.014224
v 0.002364 -0.000924 0.014051
v 0.050364 -0.000924 0.014051
v 0.002364 -0.000981 0.013863
v 0.050364 -0.000981 0.013863
v 0.002364 -0.001000 0.013668
v 0.050364 -0.001000 0.013668
v 0.002364 -0.000981 0.013473
v 0.050364 -0.000981 0.013473
v 0.002364 -0.000924 0.013286
v 0.050364 -0.000924 0.013285
v 0.002364 -0.000831 0.013113
v 0.050364 -0.000831 0.013113
v 0.002364 -0.000707 0.012961
v 0.050364 -0.000707 0.012961
v 0.002364 -0.000556 0.012837
v 0.050364 -0.000556 0.012837
v 0.002364 -0.000383 0.012744
v 0.050364 -0.000383 0.012744
v 0.002364 -0.000195 0.012687
v 0.050364 -0.000195 0.012687
v 0.002364 -0.000000 0.012668
v 0.050364 -0.000000 0.012668
v 0.002364 0.000195 0.012687
v 0.050364 0.000195 0.012687
v 0.002364 0.000383 0.012744
v 0.050364 0.000383 0.012744
v 0.002364 0.000556 0.012837
v 0.050364 0.000556 0.012837
v 0.002364 0.000707 0.012961
v 0.050364 0.000707 0.012961
v 0.002364 0.000831 0.013113
v 0.050364 0.000831 0.013113
v 0.002364 0.000924 0.013286
v 0.050364 0.000924 0.013285
v 0.002364 0.000981 0.013473
v 0.050364 0.000981 0.013473
v 0.002364 0.001000 0.013668
v 0.050364 0.001000 0.013668
v 0.002364 0.000981 0.013863
v 0.050364 0.000981 0.013863
v 0.002364 0.000924 0.014051
v 0.050364 0.000924 0.014051
v 0.002364 0.000831 0.014224
v 0.050364 0.000831 0.014224
v 0.002364 0.000707 0.014375
v 0.050364 0.000707 0.014375
v 0.002364 0.000556 0.014500
v 0.050364 0.000556 0.014500
v 0.002364 0.000383 0.014592
v 0.050364 0.000383 0.014592
v 0.050364 0.000195 0.014649
v 0.002364 0.000195 0.014649
v -0.002054 -0.000000 0.014577
v -0.034054 -0.000000 0.014577
v -0.034054 -0.000195 0.014558
v -0.002054 -0.000195 0.014558
v -0.034054 -0.000383 0.014501
v -0.002054 -0.000383 0.014501
v -0.034054 -0.000556 0.014408
v -0.002054 -0.000556 0.014408
v -0.034054 -0.000707 0.014284
v -0.002054 -0.000707 0.014284
v -0.034054 -0.000831 0.014133
v -0.002054 -0.000831 0.014133
v -0.034054 -0.000924 0.013960
v -0.002054 -0.000924 0.013960
v -0.034054 -0.000981 0.013772
v -0.002054 -0.000981 0.013772
v -0.034054 -0.001000 0.013577
v -0.002054 -0.001000 0.013577
v -0.034054 -0.000981 0.013382
v -0.002054 -0.000981 0.013382
v -0.034054 -0.000924 0.013194
v -0.002054 -0.000924 0.013194
v -0.034054 -0.000831 0.013021
v -0.002054 -0.000831 0.013021
v -0.034054 -0.000707 0.012870
v -0.002054 -0.000707 0.012870
v -0.034054 -0.000556 0.012746
v -0.002054 -0.000556 0.012745
v -0.034054 -0.000383 0.012653
v -0.002054 -0.000383 0.012653
v -0.034054 -0.000195 0.012596
v -0.002054 -0.000195 0.012596
v -0.034054 -0.000000 0.012577
v -0.002054 -0.000000 0.012577
v -0.034054 0.000195 0.012596
v -0.002054 0.000195 0.012596
v -0.034054 0.000383 0.012653
v -0.002054 0.000383 0.012653
v -0.034054 0.000556 0.012746
v -0.002054 0.000556 0.012745
v -0.034054 0.000707 0.012870
v -0.002054 0.000707 0.012870
v -0.034054 0.000831 0.013021
v -0.002054 0.000831 0.013021
v -0.034054 0.000924 0.013194
v -0.002054 0.000924 0.013194
v -0.034054 0.000981 0.013382
v -0.002054 0.000981 0.013382
v -0.034054 0.001000 0.013577
v -0.002054 0.001000 0.013577
v -0.034054 0.000981 0.013772
v -0.002054 0.000981 0.013772
v -0.034054 0.000924 0.013960
v -0.002054 0.000924 0.013960
v -0.034054 0.000831 0.014133
v -0.002054 0.000831 0.014133
v -0.034054 0.000707 0.014284
v -0.002054 0.000707 0.014284
v -0.034054 0.000556 0.014408
v -0.002054 0.000556 0.014408
v -0.034054 0.000383 0.014501
v -0.002054 0.000383 0.014501
v -0.002054 0.000195 0.014558
v -0.034054 0.000195 0.014558
v 0.000000 0.003987 0.145283
v 0.000000 0.002644 0.011796
v -0.000516 0.002593 0.011796
v -0.000778 0.003911 0.145283
v -0.001012 0.002443 0.011796
v -0.001526 0.003684 0.145283
v -0.001469 0.002198 0.011796
v -0.002215 0.003315 0.145283
v -0.001870 0.001870 0.011796
v -0.002819 0.002820 0.145283
v -0.002199 0.001469 0.011796
v -0.003315 0.002215 0.145283
v -0.002443 0.001012 0.011796
v -0.003684 0.001526 0.145283
v -0.002593 0.000516 0.011796
v -0.003911 0.000778 0.145283
v -0.002644 -0.000000 0.011796
v -0.003987 -0.000000 0.145283
v -0.002593 -0.000516 0.011796
v -0.003911 -0.000778 0.145283
v -0.002443 -0.001012 0.011796
v -0.003684 -0.001526 0.145283
v -0.002199 -0.001469 0.011796
v -0.003315 -0.002215 0.145283
v -0.001870 -0.001870 0.011796
v -0.002819 -0.002820 0.145283
v -0.001469 -0.002199 0.011796
v -0.002215 -0.003315 0.145283
v -0.001012 -0.002443 0.011796
v -0.001526 -0.003684 0.145283
v -0.000516 -0.002593 0.011796
v -0.000778 -0.003911 0.145283
v 0.000000 -0.002644 0.011796
v 0.000000 -0.003987 0.145283
v 0.000516 -0.002593 0.011796
v 0.000778 -0.003911 0.145283
v 0.001012 -0.002443 0.011796
v 0.001526 -0.003684 0.145283
v 0.001469 -0.002199 0.011796
v 0.002215 -0.003315 0.145283
v 0.001870 -0.001870 0.011796
v 0.002820 -0.002820 0.145283
v 0.002199 -0.001469 0.011796
v 0.003316 -0.002215 0.145283
v 0.002443 -0.001012 0.011796
v 0.003684 -0.001526 0.145283
v 0.002593 -0.000516 0.011796
v 0.003911 -0.000778 0.145283
v 0.002644 -0.000000 0.011796
v 0.003988 -0.000000 0.145283
v 0.002593 0.000516 0.011796
v 0.003911 0.000778 0.145283
v 0.002443 0.001012 0.011796
v 0.003684 0.001526 0.145283
v 0.002199 0.001469 0.011796
v 0.003316 0.002215 0.145283
v 0.001870 0.001870 0.011796
v 0.002820 0.002820 0.145283
v 0.001469 0.002198 0.011796
v 0.002215 0.003315 0.145283
v 0.001012 0.002443 0.011796
v 0.001526 0.003684 0.145283
v 0.000279 0.000187 0.011796
v 0.000238 0.000237 0.011796
v 0.000778 0.003911 0.145283
v 0.000516 0.002593 0.011796
v 0.000336 -0.000000 0.011796
v 0.000329 -0.000066 0.011796
v 0.000271 -0.000054 0.000283
v 0.000276 -0.000000 0.000283
v -0.000066 -0.000329 0.011796
v 0.000000 -0.000336 0.011796
v -0.000187 0.000279 0.011796
v -0.000238 0.000237 0.011796
v 0.000310 -0.000129 0.011796
v 0.000000 0.000336 0.011796
v -0.000066 0.000329 0.011796
v -0.000310 -0.000129 0.011796
v -0.000279 -0.000187 0.011796
v 0.000187 0.000279 0.011796
v 0.000129 0.000310 0.011796
v 0.000066 -0.000329 0.011796
v 0.000129 -0.000310 0.011796
v -0.000279 0.000187 0.011796
v -0.000310 0.000128 0.011796
v 0.000329 0.000065 0.011796
v -0.000238 -0.000238 0.011796
v -0.000187 -0.000279 0.011796
v 0.000066 0.000329 0.011796
v 0.000187 -0.000279 0.011796
v 0.000238 -0.000238 0.011796
v -0.000329 0.000065 0.011796
v -0.000336 -0.000000 0.011796
v 0.000310 0.000128 0.011796
v -0.000129 -0.000310 0.011796
v -0.000129 0.000310 0.011796
v 0.000279 -0.000187 0.011796
v -0.000329 -0.000066 0.011796
v 0.000106 -0.000255 0.000283
v 0.000153 -0.000230 0.000283
v -0.000153 -0.000230 0.000283
v -0.000106 -0.000255 0.000283
v -0.000276 -0.000000 0.000283
v -0.000271 -0.000054 0.000283
v -0.000153 0.000230 0.000283
v -0.000195 0.000195 0.000283
v 0.000153 0.000230 0.000283
v 0.000106 0.000255 0.000283
v 0.000271 0.000054 0.000283
v 0.000195 -0.000195 0.000283
v -0.000054 -0.000271 0.000283
v -0.000255 -0.000106 0.000283
v -0.000230 0.000153 0.000283
v 0.000054 0.000271 0.000283
v 0.000255 0.000106 0.000283
v 0.000230 -0.000154 0.000283
v 0.000000 -0.000276 0.000283
v -0.000230 -0.000154 0.000283
v -0.000255 0.000106 0.000283
v 0.000000 0.000276 0.000283
v -0.000054 0.000271 0.000283
v 0.000230 0.000153 0.000283
v 0.000255 -0.000106 0.000283
v 0.000054 -0.000271 0.000283
v -0.000195 -0.000195 0.000283
v -0.000271 0.000054 0.000283
v -0.000106 0.000255 0.000283
v 0.000195 0.000195 0.000283
vn -0.096976 -0.000000 0.995287
vn -0.290147 -0.000000 0.956982
vn -0.469527 -0.000000 0.882918
vn -0.637673 -0.000000 0.770307
vn -0.772816 -0.000000 0.634630
vn -0.880797 -0.000000 0.473493
vn -0.956982 -0.000000 0.290148
vn -0.995287 -0.000000 0.096977
vn -0.995287 0.000000 -0.096977
vn -0.956550 0.000000 -0.291568
vn -0.880797 0.000000 -0.473493
vn -0.774866 0.000000 -0.632126
vn -0.634630 0.000000 -0.772816
vn -0.473493 0.000000 -0.880798
vn -0.285474 0.000000 -0.958386
vn -0.102030 0.000000 -0.994781
vn 0.102030 0.000000 -0.994781
vn 0.285474 0.000000 -0.958386
vn 0.473493 0.000000 -0.880798
vn 0.634630 0.000000 -0.772816
vn 0.774866 0.000000 -0.632126
vn 0.880797 0.000000 -0.473493
vn 0.956550 0.000000 -0.291568
vn 0.995287 0.000000 -0.096977
vn 0.995287 -0.000000 0.096977
vn 0.956982 -0.000000 0.290148
vn 0.880797 -0.000000 0.473493
vn 0.772816 -0.000000 0.634630
vn 0.637673 -0.000000 0.770307
vn 0.469527 -0.000000 0.882918
vn 0.096976 -0.000000 0.995287
vn 0.290147 -0.000000 0.956982
vn 0.000000 -0.096976 0.995287
vn 0.000000 -0.290147 0.956982
vn 0.000000 -0.469531 0.882916
vn 0.000000 -0.637670 0.770310
vn 0.000000 -0.772816 0.634630
vn 0.000000 -0.880799 0.473491
vn 0.000000 -0.956981 0.290149
vn 0.000000 -0.995287 0.096977
vn 0.000000 -0.995287 -0.096977
vn -0.000003 -0.956767 -0.290857
vn -0.000005 -0.880225 -0.474557
vn 0.000000 -0.774866 -0.632126
vn 0.000000 -0.634630 -0.772816
vn 0.000000 -0.473493 -0.880798
vn 0.000000 -0.290147 -0.956982
vn 0.000000 -0.096981 -0.995286
vn 0.000000 0.096981 -0.995286
vn 0.000000 0.290147 -0.956982
vn 0.000000 0.473493 -0.880798
vn 0.000000 0.634630 -0.772816
vn 0.000000 0.774866 -0.632126
vn -0.000005 0.880225 -0.474557
vn -0.000003 0.956767 -0.290856
vn 0.000000 0.995287 -0.096977
vn 0.000000 0.995287 0.096977
vn 0.000000 0.956981 0.290150
vn 0.000000 0.880798 0.473491
vn 0.000000 0.772816 0.634630
vn 0.000000 0.637670 0.770310
vn 0.000000 0.469531 0.882916
vn 0.000000 0.096976 0.995287
vn 0.000000 0.290147 0.956982
vn 0.000000 -0.096981 0.995286
vn 0.000000 -0.473493 0.880798
vn 0.000000 -0.634630 0.772816
vn 0.000000 -0.880798 0.473493
vn 0.000000 -0.956982 0.290148
vn 0.000000 -0.956981 -0.290150
vn 0.000000 -0.880798 -0.473491
vn 0.000000 -0.772816 -0.634630
vn -0.000012 -0.636154 -0.771562
vn -0.000014 -0.471515 -0.881858
vn 0.000000 -0.096976 -0.995287
vn 0.000000 0.096976 -0.995287
vn -0.000014 0.471515 -0.881858
vn -0.000012 0.636154 -0.771562
vn 0.000000 0.772816 -0.634630
vn 0.000000 0.880799 -0.473491
vn 0.000000 0.956981 -0.290149
vn 0.000000 0.956982 0.290148
vn 0.000000 0.880797 0.473493
vn 0.000000 0.634630 0.772816
vn 0.000000 0.473493 0.880798
vn 0.000000 0.096981 0.995286
vn -0.097671 0.995168 -0.010015
vn -0.290014 0.956970 -0.010016
vn -0.472240 0.881413 -0.010014
vn -0.633541 0.773644 -0.010012
vn -0.773199 0.634085 -0.010009
vn -0.881733 0.471643 -0.010010
vn -0.956970 0.290014 -0.010016
vn -0.995168 0.097671 -0.010015
vn -0.995168 -0.097671 -0.010015
vn -0.956970 -0.290014 -0.010016
vn -0.881733 -0.471642 -0.010010
vn -0.773199 -0.634085 -0.010009
vn -0.634002 -0.773267 -0.010009
vn -0.471643 -0.881733 -0.010011
vn -0.290014 -0.956970 -0.010016
vn -0.097671 -0.995168 -0.010015
vn 0.097671 -0.995168 -0.010015
vn 0.290014 -0.956970 -0.010016
vn 0.471643 -0.881733 -0.010011
vn 0.633625 -0.773576 -0.010012
vn 0.773199 -0.634084 -0.010015
vn 0.882053 -0.471044 -0.010014
vn 0.956970 -0.290014 -0.010016
vn 0.995093 -0.098433 -0.010019
vn 0.995093 0.098433 -0.010019
vn 0.956970 0.290014 -0.010016
vn 0.882053 0.471044 -0.010014
vn 0.773199 0.634085 -0.010014
vn 0.633164 0.773953 -0.010014
vn 0.472240 0.881413 -0.010014
vn 0.000000 0.000000 -1.000000
vn 0.097671 0.995168 -0.010015
vn 0.290014 0.956970 -0.010016
vn 0.995024 -0.099502 -0.005151
vn 0.470582 -0.882341 -0.005150
vn -0.470582 -0.882341 -0.005150
vn -0.995024 -0.099502 -0.005151
vn -0.637729 0.770244 -0.005177
vn 0.470582 0.882341 -0.005150
vn 0.994941 0.100330 -0.005147
vn 0.632776 -0.774318 -0.005210
vn -0.291158 -0.956661 -0.005138
vn -0.956661 -0.291158 -0.005137
vn -0.770951 0.636873 -0.005182
vn 0.291158 0.956661 -0.005137
vn 0.956661 0.291158 -0.005112
vn 0.770951 -0.636873 -0.005182
vn -0.099502 -0.995024 -0.005151
vn -0.884182 -0.467115 -0.005130
vn -0.884182 0.467115 -0.005129
vn -0.099502 0.995024 -0.005151
vn 0.099502 0.995024 -0.005151
vn 0.884182 0.467115 -0.005129
vn 0.884182 -0.467115 -0.005130
vn 0.099502 -0.995024 -0.005151
vn -0.770951 -0.636873 -0.005182
vn -0.956661 0.291158 -0.005112
vn -0.291158 0.956661 -0.005137
vn 0.770951 0.636873 -0.005182
vn 0.956661 -0.291158 -0.005137
vn 0.291158 -0.956661 -0.005138
vn -0.632776 -0.774318 -0.005210
vn -0.994941 0.100330 -0.005147
vn -0.470582 0.882341 -0.005150
vn 0.637729 0.770244 -0.005177
vn 0.000000 1.000000 -0.000001
vn -1.000000 -0.000000 0.000000
vn 1.000000 0.000001 0.000000
vn 0.000002 0.000000 1.000000
vn 1.000000 -0.000000 0.000000
vn -0.000000 -1.000000 -0.000000
s off
f 1//1 2//1 3//1 4//1
f 4//2 3//2 5//2 6//2
f 6//3 5//3 7//3 8//3
f 8//4 7//4 9//4 10//4
f 10//5 9//5 11//5 12//5
f 12//6 11//6 13//6 14//6
f 14//7 13//7 15//7 16//7
f 16//8 15//8 17//8 18//8
f 18//9 17//9 19//9 20//9
f 20//10 19//10 21//10 22//10
f 22//11 21//11 23//11 24//11
f 24//12 23//12 25//12 26//12
f 26//13 25//13 27//13 28//13
f 28//14 27//14 29//14 30//14
f 30//15 29//15 31//15 32//15
f 32//16 31//16 33//16 34//16
f 34//17 33//17 35//17 36//17
f 36//18 35//18 37//18 38//18
f 38//19 37//19 39//19 40//19
f 40//20 39//20 41//20 42//20
f 42//21 41//21 43//21 44//21
f 44//22 43//22 45//22 46//22
f 46//23 45//23 47//23 48//23
f 48//24 47//24 49//24 50//24
f 50//25 49//25 51//25 52//25
f 52//26 51//26 53//26 54//26
f 54//27 53//27 55//27 56//27
f 56//28 55//28 57//28 58//28
f 58//29 57//29 59//29 60//29
f 60//30 59//30 61//30 62//30
f 2//31 1//31 63//31 64//31
f 62//32 61//32 64//32 63//32
f 65//33 66//33 67//33 68//33
f 68//34 67//34 69//34 70//34
f 70//35 69//35 71//35 72//35
f 72//36 71//36 73//36 74//36
f 74//37 73//37 75//37 76//37
f 76//38 75//38 77//38 78//38
f 78//39 77//39 79//39 80//39
f 80//40 79//40 81//40 82//40
f 82//41 81//41 83//41 84//41
f 84//42 83//42 85//42 86//42
f 86//43 85//43 87//43 88//43
f 88//44 87//44 89//44 90//44
f 90//45 89//45 91//45 92//45
f 92//46 91//46 93//46 94//46
f 94//47 93//47 95//47 96//47
f 96//48 95//48 97//48 98//48
f 98//49 97//49 99//49 100//49
f 100//50 99//50 101//50 102//50
f 102//51 101//51 103//51 104//51
f 104//52 103//52 105//52 106//52
f 106//53 105//53 107//53 108//53
f 108//54 107//54 109//54 110//54
f 110//55 109//55 111//55 112//55
f 112//56 111//56 113//56 114//56
f 114//57 113//57 115//57 116//57
f 116//58 115//58 117//58 118//58
f 118//59 117//59 119//59 120//59
f 120//60 119//60 121//60 122//60
f 122//61 121//61 123//61 124//61
f 124//62 123//62 125//62 126//62
f 127//63 128//63 66//63 65//63
f 126//64 125//64 128//64 127//64
f 129//65 130//65 131//65 132//65
f 132//34 131//34 133//34 134//34
f 134//66 133//66 135//66 136//66
f 136//67 135//67 137//67 138//67
f 138//37 137//37 139//37 140//37
f 140//68 139//68 141//68 142//68
f 142//69 141//69 143//69 144//69
f 144//40 143//40 145//40 146//40
f 146//41 145//41 147//41 148//41
f 148//70 147//70 149//70 150//70
f 150//71 149//71 151//71 152//71
f 152//72 151//72 153//72 154//72
f 154//73 153//73 155//73 156//73
f 156//74 155//74 157//74 158//74
f 158//47 157//47 159//47 160//47
f 160//75 159//75 161//75 162//75
f 162//76 161//76 163//76 164//76
f 164//50 163//50 165//50 166//50
f 166//77 165//77 167//77 168//77
f 168//78 167//78 169//78 170//78
f 170//79 169//79 171//79 172//79
f 172//80 171//80 173//80 174//80
f 174//81 173//81 175//81 176//81
f 176//56 175//56 177//56 178//56
f 178//57 177//57 179//57 180//57
f 180//82 179//82 181//82 182//82
f 182//83 181//83 183//83 184//83
f 184//60 183//60 185//60 186//60
f 186//84 185//84 187//84 188//84
f 188//85 187//85 189//85 190//85
f 191//86 192//86 130//86 129//86
f 190//64 189//64 192//64 191//64
f 193//87 194//87 195//87 196//87
f 196//88 195//88 197//88 198//88
f 198//89 197//89 199//89 200//89
f 200//90 199//90 201//90 202//90
f 202//91 201//91 203//91 204//91
f 204//92 203//92 205//92 206//92
f 206//93 205//93 207//93 208//93
f 208//94 207//94 209//94 210//94
f 210//95 209//95 211//95 212//95
f 212//96 211//96 213//96 214//96
f 214//97 213//97 215//97 216//97
f 216//98 215//98 217//98 218//98
f 218//99 217//99 219//99 220//99
f 220//100 219//100 221//100 222//100
f 222//101 221//101 223//101 224//101
f 224//102 223//102 225//102 226//102
f 226//103 225//103 227//103 228//103
f 228//104 227//104 229//104 230//104
f 230//105 229//105 231//105 232//105
f 232//106 231//106 233//106 234//106
f 234//107 233//107 235//107 236//107
f 236//108 235//108 237//108 238//108
f 238//109 237//109 239//109 240//109
f 240//110 239//110 241//110 242//110
f 242//111 241//111 243//111 244//111
f 244//112 243//112 245//112 246//112
f 246//113 245//113 247//113 248//113
f 248//114 247//114 249//114 250//114
f 250//115 249//115 251//115 252//115
f 252//116 251//116 253//116 254//116
f 249//117 247//117 255//117 256//117
f 257//118 258//118 194//118 193//118
f 254//119 253//119 258//119 257//119
f 259//120 260//120 261//120 262//120
f 225//117 223//117 263//117 264//117
f 201//117 199//117 265//117 266//117
f 239//117 237//117 267//117 260//117
f 195//117 194//117 268//117 269//117
f 215//117 213//117 270//117 271//117
f 253//117 251//117 272//117 273//117
f 229//117 227//117 274//117 275//117
f 205//117 203//117 276//117 277//117
f 243//117 241//117 259//117 278//117
f 219//117 217//117 279//117 280//117
f 194//117 258//117 281//117 268//117
f 233//117 231//117 282//117 283//117
f 209//117 207//117 284//117 285//117
f 247//117 245//117 286//117 255//117
f 223//117 221//117 287//117 263//117
f 199//117 197//117 288//117 265//117
f 237//117 235//117 289//117 267//117
f 213//117 211//117 290//117 270//117
f 251//117 249//117 256//117 272//117
f 227//117 225//117 264//117 274//117
f 203//117 201//117 266//117 276//117
f 241//117 239//117 260//117 259//117
f 217//117 215//117 271//117 279//117
f 258//117 253//117 273//117 281//117
f 231//117 229//117 275//117 282//117
f 207//117 205//117 277//117 284//117
f 245//117 243//117 278//117 286//117
f 221//117 219//117 280//117 287//117
f 197//117 195//117 269//117 288//117
f 235//117 233//117 283//117 289//117
f 211//117 209//117 285//117 290//117
f 282//121 275//121 291//121 292//121
f 287//122 280//122 293//122 294//122
f 290//123 285//123 295//123 296//123
f 266//124 265//124 297//124 298//124
f 273//125 272//125 299//125 300//125
f 278//126 259//126 262//126 301//126
f 283//127 282//127 292//127 302//127
f 263//128 287//128 294//128 303//128
f 270//129 290//129 296//129 304//129
f 276//130 266//130 298//130 305//130
f 281//131 273//131 300//131 306//131
f 286//132 278//132 301//132 307//132
f 289//133 283//133 302//133 308//133
f 264//134 263//134 303//134 309//134
f 271//135 270//135 304//135 310//135
f 277//136 276//136 305//136 311//136
f 269//137 268//137 312//137 313//137
f 268//138 281//138 306//138 312//138
f 255//139 286//139 307//139 314//139
f 267//140 289//140 308//140 315//140
f 274//141 264//141 309//141 316//141
f 279//142 271//142 310//142 317//142
f 284//143 277//143 311//143 318//143
f 288//144 269//144 313//144 319//144
f 256//145 255//145 314//145 320//145
f 260//146 267//146 315//146 261//146
f 275//147 274//147 316//147 291//147
f 280//148 279//148 317//148 293//148
f 285//149 284//149 318//149 295//149
f 265//150 288//150 319//150 297//150
f 272//151 256//151 320//151 299//151
f 17//152 15//152 13//152 11//152 9//152 7//152 5//152 3//152 2//152 64//152 61//152 59//152 57//152 55//152 53//152 51//152 49//152 47//152 45//152 43//152 41//152 39//152 37//152 35//152 33//152 31//152 29//152 27//152 25//152 23//152 21//152 19//152
f 97//153 95//153 93//153 91//153 89//153 87//153 85//153 83//153 81//153 79//153 77//153 75//153 73//153 71//153 69//153 67//153 66//153 128//153 125//153 123//153 121//153 119//153 117//153 115//153 113//153 111//153 109//153 107//153 105//153 103//153 101//153 99//153
f 82//154 84//154 86//154 88//154 90//154 92//154 94//154 96//154 98//154 100//154 102//154 104//154 106//154 108//154 110//154 112//154 114//154 116//154 118//154 120//154 122//154 124//154 126//154 127//154 65//154 68//154 70//154 72//154 74//154 76//154 78//154 80//154
f 196//155 198//155 200//155 202//155 204//155 206//155 208//155 210//155 212//155 214//155 216//155 218//155 220//155 222//155 224//155 226//155 228//155 230//155 232//155 234//155 236//155 238//155 240//155 242//155 244//155 246//155 248//155 250//155 252//155 254//155 257//155 193//155
f 292//117 291//117 316//117 309//117 303//117 294//117 293//117 317//117 310//117 304//117 296//117 295//117 318//117 311//117 305//117 298//117 297//117 319//117 313//117 312//117 306//117 300//117 299//117 320//117 314//117 307//117 301//117 262//117 261//117 315//117 308//117 302//117
f 186//156 188//156 190//156 191//156 129//156 132//156 134//156 136//156 138//156 140//156 142//156 144//156 146//156 148//156 150//156 152//156 154//156 156//156 158//156 160//156 162//156 164//156 166//156 168//156 170//156 172//156 174//156 176//156 178//156 180//156 182//156 184//156
f 143//153 141//153 139//153 137//153 135//153 133//153 131//153 130//153 192//153 189//153 187//153 185//153 183//153 181//153 179//153 177//153 175//153 173//153 171//153 169//153 167//153 165//153 163//153 161//153 159//153 157//153 155//153 153//153 151//153 149//153 147//153 145//153
f 14//157 16//157 18//157 20//157 22//157 24//157 26//157 28//157 30//157 32//157 34//157 36//157 38//157 40//157 42//157 44//157 46//157 48//157 50//157 52//157 54//157 56//157 58//157 60//157 62//157 63//157 1//157 4//157 6//157 8//157 10//157 12//157
